PathFileType	4	(X/Y/Z)	C:/Users/opensim2020/Desktop/walking_exp_matlab/subject03_walking15_straight_04.trc	
DataRate	CameraRate	NumFrames	NumMarkers	Units	OrigDataRate	OrigDataStartFrame	OrigNumFrames	
100.00	100.00	6	47	mm	100.00	2207	182	
Frame#	Time	LFHD			RFHD			LBHD			RBHD			C7			T10			CLAV			STRN			RBAK			LSHO			LUPA			LELB			LFRM			LWRA			LWRB			LFIN			RSHO			RUPA			RELB			RFRM			RWRA			RWRB			RFIN			LASI			RASI			LPSI			RPSI			LTHI			LKNE			LTIB			LANK			LHEE			LTOE			RTHI			RKNE			RTIB			RANK			RHEE			RTOE			*39			*40			*41			*42			*43			*44			*45			*46			
		X1	Y1	Z1	X2	Y2	Z2	X3	Y3	Z3	X4	Y4	Z4	X5	Y5	Z5	X6	Y6	Z6	X7	Y7	Z7	X8	Y8	Z8	X9	Y9	Z9	X10	Y10	Z10	X11	Y11	Z11	X12	Y12	Z12	X13	Y13	Z13	X14	Y14	Z14	X15	Y15	Z15	X16	Y16	Z16	X17	Y17	Z17	X18	Y18	Z18	X19	Y19	Z19	X20	Y20	Z20	X21	Y21	Z21	X22	Y22	Z22	X23	Y23	Z23	X24	Y24	Z24	X25	Y25	Z25	X26	Y26	Z26	X27	Y27	Z27	X28	Y28	Z28	X29	Y29	Z29	X30	Y30	Z30	X31	Y31	Z31	X32	Y32	Z32	X33	Y33	Z33	X34	Y34	Z34	X35	Y35	Z35	X36	Y36	Z36	X37	Y37	Z37	X38	Y38	Z38	X39	Y39	Z39	X40	Y40	Z40	X41	Y41	Z41	X42	Y42	Z42	X43	Y43	Z43	X44	Y44	Z44	X45	Y45	Z45	X46	Y46	Z46	X47	Y47	Z47	

46	0.450	-940.51410	517.96497	1613.35413	-1072.42676	520.21100	1627.86597	-946.09589	647.12775	1573.87866	-1076.21118	644.30176	1587.37805	-1022.00079	677.87872	1413.86731	-1027.36755	707.90631	1101.53296	-1014.67853	557.19434	1339.08508	-1009.57196	509.82532	1174.46521	-1127.65930	716.44611	1239.18115	-861.57880	617.13525	1373.02051	-794.54614	636.16888	1174.19043	-782.69000	629.19983	1051.10413	-780.31732	600.27490	923.83844	-808.09851	572.11603	807.94714	-762.14667	603.58588	810.50842	-766.22375	578.91040	731.36218	-1175.10229	587.06354	1366.21790	-1256.41663	546.37463	1152.13293	-1274.34033	509.42258	1046.67627	-1281.95886	464.76175	917.49933	-1249.16760	419.05353	827.53076	-1295.88562	444.19067	820.31348	-1288.47803	408.18420	754.63458	-905.60297	547.91040	936.66187	-1142.10767	539.46539	941.56812	-958.81152	708.71802	955.69745	-1107.35950	700.49353	974.31201	-857.58282	519.92902	644.25995	-885.21240	447.64798	480.70847	-896.40924	524.47913	295.57452	-944.86469	582.09247	97.71049	-990.10620	625.18042	70.25990	-952.36255	446.71481	39.05070	-1186.90173	617.48181	649.35272	-1151.87036	629.50525	469.81015	-1162.45129	700.56482	290.43216	-1120.10681	767.05164	82.24152	-1076.55066	820.64331	56.99234	-1085.95557	632.47595	31.04327	-982.66223	599.78290	1680.64075																					 
47	0.460	-939.74548	505.52176	1612.55090	-1071.67029	507.55954	1627.29272	-945.59625	634.62976	1572.87109	-1075.68250	631.55524	1586.56702	-1021.46863	665.02136	1413.09888	-1026.45837	695.82172	1100.99683	-1014.33014	544.34509	1338.24084	-1009.27649	497.36230	1173.46704	-1127.22046	703.85889	1238.66931	-861.07245	603.71674	1372.26184	-793.73871	624.91406	1173.56262	-781.50037	620.31653	1050.34875	-778.15289	595.89325	922.17218	-804.90979	572.28491	805.03998	-758.73901	603.59875	809.15039	-762.59937	582.60150	728.69641	-1174.71765	574.54474	1365.57568	-1256.22778	531.77429	1152.02332	-1274.03870	492.94861	1047.18982	-1281.45581	445.12415	919.25739	-1248.45984	396.70953	830.86096	-1294.84631	422.17438	822.57690	-1287.41296	384.24673	758.08221	-905.37048	535.05353	935.98749	-1142.14075	528.85590	940.66217	-957.61041	696.58020	954.90552	-1106.26111	689.52844	973.48889	-856.83502	506.25714	644.25641	-885.11499	434.40878	480.85843	-894.87244	499.67242	291.00082	-942.20251	542.10132	88.87558	-987.03278	583.62543	58.28504	-949.87714	402.79047	39.47546	-1186.54822	609.40143	648.80750	-1151.68506	623.51794	469.42395	-1162.14014	697.21552	291.00198	-1119.53101	766.47076	83.60915	-1075.64783	820.36102	59.10020	-1085.90466	632.36279	30.92128	-981.96826	587.43164	1679.80835																					 
48	0.470	-938.97943	492.99167	1611.66260	-1070.84753	494.88431	1626.59045	-945.06744	621.98096	1571.74158	-1075.09985	618.80859	1585.63708	-1020.78802	652.06134	1412.21423	-1025.30249	683.69128	1100.31934	-1013.94611	531.43958	1337.32544	-1009.00684	484.90903	1172.37085	-1126.54565	691.33032	1238.06628	-860.42261	590.11224	1371.35461	-792.85944	613.46100	1172.79944	-780.21851	611.43427	1049.60266	-776.00146	591.47815	920.71027	-802.35889	573.90466	802.02686	-755.41565	603.34003	808.14844	-759.18335	586.12354	726.56696	-1174.17578	561.83350	1364.58496	-1256.00696	517.37689	1151.71851	-1274.09583	477.04388	1047.73352	-1280.83313	425.89777	920.92798	-1247.63623	374.57471	834.44855	-1293.57190	400.64890	824.97736	-1286.09680	360.57120	761.70276	-905.30457	522.10895	934.71216	-1142.30237	518.06506	939.65057	-956.40240	684.31641	954.03650	-1105.05432	678.47827	972.50739	-856.36517	493.64316	643.84094	-884.87872	422.11395	480.33258	-893.23047	475.15631	286.86322	-939.48853	502.12125	81.49213	-983.95496	541.69623	48.58850	-947.88458	359.41147	40.65630	-1186.59351	601.55188	648.34631	-1151.50354	617.43451	469.00369	-1161.77490	693.83862	291.61929	-1118.89038	765.84442	85.17345	-1074.96790	819.66479	61.03626	-1085.94409	632.28894	30.90528																								 
49	0.480	-938.16815	480.43509	1610.79492	-1070.04370	482.21149	1625.88708	-944.45593	609.43457	1570.58105	-1074.39185	605.92224	1584.55615	-1019.95752	638.98682	1411.32178	-1024.00452	671.52893	1099.61511	-1013.47308	518.39819	1336.29248	-1008.82343	472.29507	1171.16821	-1125.66638	678.89197	1237.40930	-859.75208	576.46710	1370.36865	-791.92950	601.72058	1172.03259	-778.86877	602.46515	1048.94128	-773.76898	586.85309	919.39740	-799.32831	573.74146	799.86005	-752.13104	602.75891	807.48047	-755.95258	589.51740	724.85553	-1173.60730	549.04144	1363.37500	-1255.75378	503.31934	1151.31311	-1273.92188	461.47546	1048.00769	-1280.04431	407.11697	922.54999	-1246.46643	353.11502	837.92316	-1292.01318	379.29425	827.29688	-1284.41211	337.28375	765.50287	-905.41711	509.43918	933.46942	-1142.42822	507.01883	938.36841	-955.13611	671.82257	953.00537	-1103.77844	667.19373	971.41345	-855.79114	481.52826	642.77155	-884.77875	410.86478	479.15247	-891.85773	451.17896	283.24652	-936.99390	462.27863	75.68595	-980.83514	499.18207	40.17264	-945.78040	317.19638	42.91334	-1185.62354	592.83032	647.58698	-1151.28857	611.21753	468.58926	-1160.87708	690.52496	292.19910	-1118.30652	765.16449	86.67256	-1074.20337	819.10822	63.31425	-1085.89526	632.17926	30.84225	-980.46143	562.53973	1677.65149																					 
50	0.490	-937.34204	467.84717	1609.88330	-1069.18994	469.56476	1625.05457	-943.80054	596.64276	1569.24731	-1073.79175	593.22534	1583.41248	-1019.11096	625.77625	1410.36389	-1022.59161	659.20325	1098.84180	-1012.95532	505.27225	1335.15540	-1008.64233	459.61966	1169.87146	-1124.59326	666.48218	1236.69836	-859.00153	562.74768	1369.30750	-790.93512	589.95074	1171.23889	-777.55627	593.38580	1048.29749	-771.61212	581.95123	918.29254	-796.78137	573.06610	797.90027	-748.91925	601.71259	807.13831	-753.00507	592.54102	723.63776	-1173.02026	536.38806	1362.43213	-1255.47412	489.54422	1150.83081	-1273.70959	446.39948	1048.16052	-1279.11414	388.80127	924.11688	-1244.89905	332.16827	841.57825	-1290.15381	358.33508	829.45923	-1282.49414	314.45920	769.51355	-905.40649	496.18265	932.07220	-1142.47449	495.97241	937.06982	-953.74091	659.01764	951.81012	-1102.33301	655.71881	970.17212	-855.37292	470.24420	640.98346	-884.71210	400.28629	477.41492	-890.54742	428.22614	280.21881	-933.80231	423.80499	71.71776	-977.69531	457.85678	33.95446	-943.24335	276.35928	46.76685	-1185.19934	584.42700	646.97290	-1151.07507	604.81262	468.12198	-1160.49182	686.79626	292.84143	-1117.94983	764.34961	88.36446	-1073.41895	818.68408	65.84664	-1085.85144	632.04376	30.79519																								 
51	0.500	-936.48468	455.25482	1608.87097	-1068.34521	456.88889	1624.13049	-943.09540	583.87701	1567.86511	-1073.04309	580.45728	1582.10266	-1018.20850	612.50818	1409.32227	-1021.12213	646.78180	1097.99121	-1012.30957	492.03671	1333.93616	-1008.37750	446.74240	1168.45850	-1123.42383	654.04156	1235.85535	-858.19220	548.88483	1368.19604	-789.86084	578.05859	1170.34900	-775.95563	584.21875	1047.67151	-769.39044	576.65869	917.39209	-793.08917	571.94659	796.95117	-745.77014	600.11237	807.07458	-750.01941	594.93585	722.74298	-1172.23413	523.48230	1361.07007	-1255.10620	475.99994	1150.19226	-1273.43823	431.74762	1048.12695	-1278.01807	371.02505	925.67072	-1243.23376	311.82227	845.28088	-1288.09082	337.99652	831.85089	-1280.28589	291.98712	773.66461	-905.29767	482.66818	930.67206	-1142.52209	484.67676	935.61597	-952.15631	646.01898	950.52557	-1100.78369	644.02411	968.78766	-854.98438	459.80115	638.52710	-885.02869	390.14886	475.14371	-889.46118	406.48904	277.74637	-930.51471	386.82767	69.26747	-974.12152	418.11911	29.64964	-940.08435	237.61284	52.51896	-1184.82471	575.84509	646.36078	-1150.87280	598.13275	467.60953	-1160.15576	682.88892	293.53076	-1117.58667	763.41290	90.12014	-1072.91235	817.96289	68.39823	-1085.85864	631.94720	30.78783	-978.87115	537.58911	1675.23499																					 
